<svg width="111" height="13" viewBox="0 0 111 13" fill="none" xmlns="http://www.w3.org/2000/svg">
<path d="M9.42188 6.17969C9.42188 6.88281 9.38542 7.51042 9.3125 8.0625C9.23958 8.61458 9.13281 9.10677 8.99219 9.53906C8.85677 9.96615 8.6875 10.3385 8.48438 10.6562C8.28646 10.9688 8.05729 11.237 7.79688 11.4609C7.48438 11.737 7.21615 11.875 6.99219 11.875C6.88281 11.875 6.82812 11.8099 6.82812 11.6797C6.82812 11.638 6.86719 11.5677 6.94531 11.4688C7.02344 11.3646 7.09896 11.2422 7.17188 11.1016C7.58854 10.3151 7.79688 9.1224 7.79688 7.52344C7.79688 7.23698 7.79688 6.90365 7.79688 6.52344C7.79688 6.14323 7.77083 5.7526 7.71875 5.35156C7.67188 4.94531 7.58854 4.54688 7.46875 4.15625C7.34896 3.76562 7.16667 3.41667 6.92188 3.10938C6.67708 2.80208 6.35677 2.55469 5.96094 2.36719C5.57031 2.17448 5.08073 2.07812 4.49219 2.07812C4.03385 2.07812 3.58594 2.16406 3.14844 2.33594C2.71094 2.50781 2.27604 2.76302 1.84375 3.10156L1.59375 3.29688C1.54688 3.33854 1.49479 3.375 1.4375 3.40625C1.38021 3.4375 1.33854 3.45312 1.3125 3.45312C1.20312 3.45312 1.14844 3.40104 1.14844 3.29688C1.14844 3.13542 1.26042 2.91146 1.48438 2.625C1.95312 2.02604 2.50521 1.57292 3.14062 1.26562C3.77604 0.953125 4.44531 0.796875 5.14844 0.796875C5.85677 0.796875 6.47656 0.903646 7.00781 1.11719C7.54427 1.33073 7.98958 1.65885 8.34375 2.10156C8.70312 2.53906 8.97135 3.09635 9.14844 3.77344C9.33073 4.45052 9.42188 5.2526 9.42188 6.17969ZM2.73438 3.72656C2.73438 3.77344 2.70833 3.9375 2.65625 4.21875C2.60417 4.49479 2.55208 4.86198 2.5 5.32031C2.44792 5.77865 2.42188 6.25 2.42188 6.73438C2.42188 7.10938 2.43229 7.45052 2.45312 7.75781C2.47917 8.0651 2.52083 8.38802 2.57812 8.72656C2.63542 9.0651 2.72396 9.36198 2.84375 9.61719C2.96354 9.86719 3.11198 10.099 3.28906 10.3125C3.46615 10.5208 3.69271 10.6823 3.96875 10.7969C4.24479 10.9062 4.5599 10.9609 4.91406 10.9609C5.22656 10.9609 5.5026 10.9297 5.74219 10.8672C5.98177 10.7995 6.16667 10.7344 6.29688 10.6719C6.42708 10.6094 6.51562 10.5781 6.5625 10.5781C6.67708 10.5781 6.73438 10.6406 6.73438 10.7656C6.73438 10.8958 6.6849 11.0417 6.58594 11.2031C6.48698 11.3646 6.34896 11.526 6.17188 11.6875C5.99479 11.8438 5.75521 11.974 5.45312 12.0781C5.15104 12.1875 4.82552 12.2422 4.47656 12.2422C3.77344 12.2422 3.17969 12.1276 2.69531 11.8984C2.21094 11.6641 1.83073 11.3125 1.55469 10.8438C1.28385 10.375 1.08854 9.83333 0.96875 9.21875C0.854167 8.60417 0.796875 7.8724 0.796875 7.02344C0.796875 5.73698 0.927083 4.84635 1.1875 4.35156C1.33333 4.08073 1.54167 3.86198 1.8125 3.69531C2.08333 3.52344 2.3099 3.4375 2.49219 3.4375C2.65365 3.4375 2.73438 3.53385 2.73438 3.72656ZM13.0156 3.78906C13.0156 3.86719 12.987 4.03906 12.9297 4.30469C12.8724 4.57031 12.8125 4.92188 12.75 5.35938C12.6927 5.79688 12.6641 6.26042 12.6641 6.75C12.6641 7.13021 12.6797 7.47917 12.7109 7.79688C12.7422 8.10938 12.7943 8.43229 12.8672 8.76562C12.9453 9.09375 13.0547 9.38281 13.1953 9.63281C13.3411 9.88281 13.5182 10.1094 13.7266 10.3125C13.9349 10.5104 14.1953 10.6641 14.5078 10.7734C14.8203 10.8776 15.1771 10.9297 15.5781 10.9297C15.9479 10.9297 16.2943 10.888 16.6172 10.8047C16.9401 10.7214 17.1849 10.6302 17.3516 10.5312C17.5234 10.4271 17.6797 10.3333 17.8203 10.25C17.9661 10.1667 18.0677 10.125 18.125 10.125C18.25 10.125 18.3125 10.1901 18.3125 10.3203C18.3125 10.3984 18.2786 10.5078 18.2109 10.6484C18.1484 10.7891 18.0339 10.9531 17.8672 11.1406C17.7005 11.3281 17.4974 11.5026 17.2578 11.6641C17.0234 11.8255 16.7057 11.9609 16.3047 12.0703C15.9036 12.1849 15.4635 12.2422 14.9844 12.2422C14.224 12.2422 13.5833 12.1276 13.0625 11.8984C12.5417 11.6693 12.1328 11.3255 11.8359 10.8672C11.5443 10.4089 11.3359 9.88021 11.2109 9.28125C11.0911 8.68229 11.0312 7.96615 11.0312 7.13281C11.0312 6.54427 11.0677 6.01302 11.1406 5.53906C11.2135 5.0651 11.3021 4.72656 11.4062 4.52344C11.5365 4.26302 11.7396 4.03646 12.0156 3.84375C12.2969 3.64583 12.5521 3.54688 12.7812 3.54688C12.9375 3.54688 13.0156 3.6276 13.0156 3.78906ZM18.1562 1.72656C18.1562 1.9401 17.9635 2.1849 17.5781 2.46094C17.4219 2.59115 17.2448 2.65625 17.0469 2.65625C17 2.65625 16.9557 2.65365 16.9141 2.64844C16.8724 2.63802 16.8255 2.625 16.7734 2.60938C16.7214 2.58854 16.6797 2.57292 16.6484 2.5625C16.6172 2.55208 16.5651 2.53125 16.4922 2.5C16.4245 2.46875 16.375 2.44531 16.3438 2.42969C15.7917 2.19531 15.2812 2.07812 14.8125 2.07812C13.875 2.07812 12.9635 2.46875 12.0781 3.25C12.0521 3.27083 12.013 3.30208 11.9609 3.34375C11.9089 3.38542 11.8672 3.41927 11.8359 3.44531C11.8099 3.46615 11.776 3.49219 11.7344 3.52344C11.6979 3.54948 11.6641 3.57031 11.6328 3.58594C11.6068 3.59635 11.5833 3.60156 11.5625 3.60156C11.4427 3.60156 11.3828 3.53646 11.3828 3.40625C11.3828 3.23958 11.5234 2.97917 11.8047 2.625C12.2839 2.03125 12.8359 1.57812 13.4609 1.26562C14.0911 0.953125 14.8568 0.796875 15.7578 0.796875C16.4505 0.796875 17.0833 0.9375 17.6562 1.21875C17.7552 1.26562 17.8255 1.30208 17.8672 1.32812C17.9141 1.34896 17.974 1.39844 18.0469 1.47656C18.1198 1.55469 18.1562 1.63802 18.1562 1.72656ZM21.2656 1.03906H25.4766C25.7005 1.03906 25.8125 1.11979 25.8125 1.28125C25.8125 1.35417 25.7604 1.48698 25.6562 1.67969C25.5521 1.86719 25.4271 2.02604 25.2812 2.15625C25.1615 2.26562 24.9714 2.32031 24.7109 2.32031H20.2266C20.1484 2.32031 20.0911 2.31771 20.0547 2.3125C20.0182 2.30208 19.9844 2.27865 19.9531 2.24219C19.9271 2.20573 19.9141 2.15365 19.9141 2.08594C19.9141 1.89323 20.0651 1.67188 20.3672 1.42188C20.6745 1.16667 20.974 1.03906 21.2656 1.03906ZM19.9219 11.6641V7.8125C19.9219 7.625 19.9844 7.5026 20.1094 7.44531C20.2396 7.38281 20.4401 7.35156 20.7109 7.35156C21.0026 7.35156 21.2057 7.38281 21.3203 7.44531C21.4349 7.5026 21.4922 7.625 21.4922 7.8125V10.3984C21.4922 10.612 21.599 10.7188 21.8125 10.7188H25.6328C25.8568 10.7188 25.9688 10.7995 25.9688 10.9609C25.9688 11.0339 25.9167 11.1693 25.8125 11.3672C25.7083 11.5599 25.5859 11.7188 25.4453 11.8438C25.3255 11.9479 25.1328 12 24.8672 12H20.1953C20.013 12 19.9219 11.888 19.9219 11.6641ZM19.9219 6.5625V3.25781C19.9219 3.07031 19.9844 2.94531 20.1094 2.88281C20.2396 2.82031 20.4401 2.78906 20.7109 2.78906C21.0026 2.78906 21.2057 2.82031 21.3203 2.88281C21.4349 2.9401 21.4922 3.0651 21.4922 3.25781V5.28125C21.4922 5.49479 21.599 5.60156 21.8125 5.60156H24.9922C25.2161 5.60156 25.3281 5.68229 25.3281 5.84375C25.3281 5.91667 25.276 6.04948 25.1719 6.24219C25.0677 6.42969 24.9453 6.58854 24.8047 6.71875C24.6849 6.82812 24.4922 6.88281 24.2266 6.88281H20.2422C20.0286 6.88281 19.9219 6.77604 19.9219 6.5625ZM28.7578 9.59375L28.3203 10.9141C28.2109 11.2474 28.0208 11.526 27.75 11.75C27.4792 11.9688 27.1745 12.0781 26.8359 12.0781C26.7526 12.0781 26.6823 12.0547 26.625 12.0078C26.5729 11.9661 26.5469 11.9036 26.5469 11.8203C26.5469 11.7891 26.5573 11.7422 26.5781 11.6797L27.3281 9.53125C27.3646 9.42188 27.4036 9.33854 27.4453 9.28125C27.487 9.21875 27.5443 9.17448 27.6172 9.14844C27.6953 9.1224 27.763 9.10677 27.8203 9.10156C27.8828 9.09635 27.987 9.09375 28.1328 9.09375C28.2526 9.09375 28.3411 9.09635 28.3984 9.10156C28.4557 9.10156 28.5208 9.10938 28.5938 9.125C28.6719 9.14062 28.7266 9.16927 28.7578 9.21094C28.7891 9.2474 28.8047 9.29948 28.8047 9.36719C28.8047 9.41406 28.7891 9.48958 28.7578 9.59375ZM31.3281 1.13281L34.6562 10.8125C34.6927 10.9792 34.7109 11.0729 34.7109 11.0938C34.7109 11.3177 34.5807 11.5391 34.3203 11.7578C34.0599 11.9714 33.8307 12.0781 33.6328 12.0781C33.4609 12.0781 33.3281 11.9453 33.2344 11.6797L29.9844 2.19531C29.9323 1.96094 29.9062 1.83594 29.9062 1.82031C29.9062 1.59115 30.0495 1.36458 30.3359 1.14062C30.6276 0.911458 30.8516 0.796875 31.0078 0.796875C31.0964 0.796875 31.1589 0.820312 31.1953 0.867188C31.237 0.908854 31.2812 0.997396 31.3281 1.13281ZM31.1875 8.625H28.0156C27.8177 8.625 27.7188 8.53906 27.7188 8.36719C27.7188 8.32031 27.7292 8.26823 27.75 8.21094L29.3516 3.42188C29.4245 3.21875 29.5078 3.11719 29.6016 3.11719C29.6849 3.11719 29.7578 3.16927 29.8203 3.27344C29.8828 3.3724 29.9505 3.53385 30.0234 3.75781C30.1589 4.17969 30.2266 4.49479 30.2266 4.70312C30.2266 4.84896 30.2005 5.0026 30.1484 5.16406L29.5391 7.02344C29.5286 7.04948 29.5234 7.08594 29.5234 7.13281C29.5234 7.27344 29.6042 7.34375 29.7656 7.34375H30.5781C30.8438 7.34375 31.0234 7.35677 31.1172 7.38281C31.2109 7.40885 31.2865 7.48177 31.3438 7.60156C31.3958 7.70573 31.4375 7.84115 31.4688 8.00781C31.5052 8.16927 31.5234 8.28906 31.5234 8.36719C31.5234 8.53906 31.4115 8.625 31.1875 8.625ZM42.1719 11.6641V1.89062C42.1719 1.58333 42.3021 1.33854 42.5625 1.15625C42.8281 0.973958 43.0625 0.882812 43.2656 0.882812C43.4427 0.882812 43.5312 0.994792 43.5312 1.21875V10.9141C43.5312 11.1745 43.4792 11.3646 43.375 11.4844C43.2396 11.6406 43.0729 11.7786 42.875 11.8984C42.6823 12.0182 42.5286 12.0781 42.4141 12.0781C42.3672 12.0781 42.3281 12.0729 42.2969 12.0625C42.2708 12.0521 42.2422 12.0156 42.2109 11.9531C42.1849 11.8854 42.1719 11.7891 42.1719 11.6641ZM41.1406 10.4453L35.8516 2.01562C35.7891 1.91667 35.7578 1.82552 35.7578 1.74219C35.7578 1.6276 35.8177 1.50521 35.9375 1.375C36.25 1.04688 36.5417 0.882812 36.8125 0.882812C36.9427 0.882812 37.0599 0.966146 37.1641 1.13281L41.3984 7.82812C41.5391 8.04688 41.625 8.25 41.6562 8.4375C41.6875 8.61979 41.7031 8.91667 41.7031 9.32812C41.7031 10.2448 41.6068 10.7031 41.4141 10.7031C41.3464 10.7031 41.2656 10.6302 41.1719 10.4844C41.1562 10.4688 41.1458 10.4557 41.1406 10.4453ZM37.0078 4.8125C37.0911 5.00521 37.1328 5.24219 37.1328 5.52344V10.9141C37.1328 11.1745 37.0807 11.3646 36.9766 11.4844C36.8464 11.6406 36.6797 11.7786 36.4766 11.8984C36.2786 12.0182 36.1276 12.0781 36.0234 12.0781C35.8568 12.0781 35.7734 11.9661 35.7734 11.7422V3.5C35.7734 3.375 35.8229 3.3125 35.9219 3.3125C35.9896 3.3125 36.0625 3.35938 36.1406 3.45312C36.224 3.54688 36.3568 3.72917 36.5391 4C36.7474 4.3125 36.9036 4.58333 37.0078 4.8125ZM50.1328 9.59375L49.6953 10.9141C49.5859 11.2474 49.3958 11.526 49.125 11.75C48.8542 11.9688 48.5495 12.0781 48.2109 12.0781C48.1276 12.0781 48.0573 12.0547 48 12.0078C47.9479 11.9661 47.9219 11.9036 47.9219 11.8203C47.9219 11.7891 47.9323 11.7422 47.9531 11.6797L48.7031 9.53125C48.7396 9.42188 48.7786 9.33854 48.8203 9.28125C48.862 9.21875 48.9193 9.17448 48.9922 9.14844C49.0703 9.1224 49.138 9.10677 49.1953 9.10156C49.2578 9.09635 49.362 9.09375 49.5078 9.09375C49.6276 9.09375 49.7161 9.09635 49.7734 9.10156C49.8307 9.10156 49.8958 9.10938 49.9688 9.125C50.0469 9.14062 50.1016 9.16927 50.1328 9.21094C50.1641 9.2474 50.1797 9.29948 50.1797 9.36719C50.1797 9.41406 50.1641 9.48958 50.1328 9.59375ZM52.7031 1.13281L56.0312 10.8125C56.0677 10.9792 56.0859 11.0729 56.0859 11.0938C56.0859 11.3177 55.9557 11.5391 55.6953 11.7578C55.4349 11.9714 55.2057 12.0781 55.0078 12.0781C54.8359 12.0781 54.7031 11.9453 54.6094 11.6797L51.3594 2.19531C51.3073 1.96094 51.2812 1.83594 51.2812 1.82031C51.2812 1.59115 51.4245 1.36458 51.7109 1.14062C52.0026 0.911458 52.2266 0.796875 52.3828 0.796875C52.4714 0.796875 52.5339 0.820312 52.5703 0.867188C52.612 0.908854 52.6562 0.997396 52.7031 1.13281ZM52.5625 8.625H49.3906C49.1927 8.625 49.0938 8.53906 49.0938 8.36719C49.0938 8.32031 49.1042 8.26823 49.125 8.21094L50.7266 3.42188C50.7995 3.21875 50.8828 3.11719 50.9766 3.11719C51.0599 3.11719 51.1328 3.16927 51.1953 3.27344C51.2578 3.3724 51.3255 3.53385 51.3984 3.75781C51.5339 4.17969 51.6016 4.49479 51.6016 4.70312C51.6016 4.84896 51.5755 5.0026 51.5234 5.16406L50.9141 7.02344C50.9036 7.04948 50.8984 7.08594 50.8984 7.13281C50.8984 7.27344 50.9792 7.34375 51.1406 7.34375H51.9531C52.2188 7.34375 52.3984 7.35677 52.4922 7.38281C52.5859 7.40885 52.6615 7.48177 52.7188 7.60156C52.7708 7.70573 52.8125 7.84115 52.8438 8.00781C52.8802 8.16927 52.8984 8.28906 52.8984 8.36719C52.8984 8.53906 52.7865 8.625 52.5625 8.625ZM58.875 3.78906C58.875 3.86719 58.8464 4.03906 58.7891 4.30469C58.7318 4.57031 58.6719 4.92188 58.6094 5.35938C58.5521 5.79688 58.5234 6.26042 58.5234 6.75C58.5234 7.13021 58.5391 7.47917 58.5703 7.79688C58.6016 8.10938 58.6536 8.43229 58.7266 8.76562C58.8047 9.09375 58.9141 9.38281 59.0547 9.63281C59.2005 9.88281 59.3776 10.1094 59.5859 10.3125C59.7943 10.5104 60.0547 10.6641 60.3672 10.7734C60.6797 10.8776 61.0365 10.9297 61.4375 10.9297C61.8073 10.9297 62.1536 10.888 62.4766 10.8047C62.7995 10.7214 63.0443 10.6302 63.2109 10.5312C63.3828 10.4271 63.5391 10.3333 63.6797 10.25C63.8255 10.1667 63.9271 10.125 63.9844 10.125C64.1094 10.125 64.1719 10.1901 64.1719 10.3203C64.1719 10.3984 64.138 10.5078 64.0703 10.6484C64.0078 10.7891 63.8932 10.9531 63.7266 11.1406C63.5599 11.3281 63.3568 11.5026 63.1172 11.6641C62.8828 11.8255 62.5651 11.9609 62.1641 12.0703C61.763 12.1849 61.3229 12.2422 60.8438 12.2422C60.0833 12.2422 59.4427 12.1276 58.9219 11.8984C58.401 11.6693 57.9922 11.3255 57.6953 10.8672C57.4036 10.4089 57.1953 9.88021 57.0703 9.28125C56.9505 8.68229 56.8906 7.96615 56.8906 7.13281C56.8906 6.54427 56.9271 6.01302 57 5.53906C57.0729 5.0651 57.1615 4.72656 57.2656 4.52344C57.3958 4.26302 57.599 4.03646 57.875 3.84375C58.1562 3.64583 58.4115 3.54688 58.6406 3.54688C58.7969 3.54688 58.875 3.6276 58.875 3.78906ZM64.0156 1.72656C64.0156 1.9401 63.8229 2.1849 63.4375 2.46094C63.2812 2.59115 63.1042 2.65625 62.9062 2.65625C62.8594 2.65625 62.8151 2.65365 62.7734 2.64844C62.7318 2.63802 62.6849 2.625 62.6328 2.60938C62.5807 2.58854 62.5391 2.57292 62.5078 2.5625C62.4766 2.55208 62.4245 2.53125 62.3516 2.5C62.2839 2.46875 62.2344 2.44531 62.2031 2.42969C61.651 2.19531 61.1406 2.07812 60.6719 2.07812C59.7344 2.07812 58.8229 2.46875 57.9375 3.25C57.9115 3.27083 57.8724 3.30208 57.8203 3.34375C57.7682 3.38542 57.7266 3.41927 57.6953 3.44531C57.6693 3.46615 57.6354 3.49219 57.5938 3.52344C57.5573 3.54948 57.5234 3.57031 57.4922 3.58594C57.4661 3.59635 57.4427 3.60156 57.4219 3.60156C57.3021 3.60156 57.2422 3.53646 57.2422 3.40625C57.2422 3.23958 57.3828 2.97917 57.6641 2.625C58.1432 2.03125 58.6953 1.57812 59.3203 1.26562C59.9505 0.953125 60.7161 0.796875 61.6172 0.796875C62.3099 0.796875 62.9427 0.9375 63.5156 1.21875C63.6146 1.26562 63.6849 1.30208 63.7266 1.32812C63.7734 1.34896 63.8333 1.39844 63.9062 1.47656C63.9792 1.55469 64.0156 1.63802 64.0156 1.72656ZM66.9609 9.59375L66.5234 10.9141C66.4141 11.2474 66.224 11.526 65.9531 11.75C65.6823 11.9688 65.3776 12.0781 65.0391 12.0781C64.9557 12.0781 64.8854 12.0547 64.8281 12.0078C64.776 11.9661 64.75 11.9036 64.75 11.8203C64.75 11.7891 64.7604 11.7422 64.7812 11.6797L65.5312 9.53125C65.5677 9.42188 65.6068 9.33854 65.6484 9.28125C65.6901 9.21875 65.7474 9.17448 65.8203 9.14844C65.8984 9.1224 65.9661 9.10677 66.0234 9.10156C66.0859 9.09635 66.1901 9.09375 66.3359 9.09375C66.4557 9.09375 66.5443 9.09635 66.6016 9.10156C66.6589 9.10156 66.724 9.10938 66.7969 9.125C66.875 9.14062 66.9297 9.16927 66.9609 9.21094C66.9922 9.2474 67.0078 9.29948 67.0078 9.36719C67.0078 9.41406 66.9922 9.48958 66.9609 9.59375ZM69.5312 1.13281L72.8594 10.8125C72.8958 10.9792 72.9141 11.0729 72.9141 11.0938C72.9141 11.3177 72.7839 11.5391 72.5234 11.7578C72.263 11.9714 72.0339 12.0781 71.8359 12.0781C71.6641 12.0781 71.5312 11.9453 71.4375 11.6797L68.1875 2.19531C68.1354 1.96094 68.1094 1.83594 68.1094 1.82031C68.1094 1.59115 68.2526 1.36458 68.5391 1.14062C68.8307 0.911458 69.0547 0.796875 69.2109 0.796875C69.2995 0.796875 69.362 0.820312 69.3984 0.867188C69.4401 0.908854 69.4844 0.997396 69.5312 1.13281ZM69.3906 8.625H66.2188C66.0208 8.625 65.9219 8.53906 65.9219 8.36719C65.9219 8.32031 65.9323 8.26823 65.9531 8.21094L67.5547 3.42188C67.6276 3.21875 67.7109 3.11719 67.8047 3.11719C67.888 3.11719 67.9609 3.16927 68.0234 3.27344C68.0859 3.3724 68.1536 3.53385 68.2266 3.75781C68.362 4.17969 68.4297 4.49479 68.4297 4.70312C68.4297 4.84896 68.4036 5.0026 68.3516 5.16406L67.7422 7.02344C67.7318 7.04948 67.7266 7.08594 67.7266 7.13281C67.7266 7.27344 67.8073 7.34375 67.9688 7.34375H68.7812C69.0469 7.34375 69.2266 7.35677 69.3203 7.38281C69.4141 7.40885 69.4896 7.48177 69.5469 7.60156C69.599 7.70573 69.6406 7.84115 69.6719 8.00781C69.7083 8.16927 69.7266 8.28906 69.7266 8.36719C69.7266 8.53906 69.6146 8.625 69.3906 8.625ZM75.5312 2.3125H74.2656C74.0625 2.3125 73.9609 2.25 73.9609 2.125C73.9609 2.01042 74.0026 1.89323 74.0859 1.77344C74.1693 1.64844 74.276 1.53385 74.4062 1.42969C74.5417 1.32552 74.6901 1.23698 74.8516 1.16406C75.0182 1.09115 75.1797 1.04948 75.3359 1.03906L75.9609 1.02344C76.7891 1.02344 77.5599 1.1276 78.2734 1.33594C78.987 1.53906 79.6068 1.86458 80.1328 2.3125C80.6589 2.76042 81.0703 3.33594 81.3672 4.03906C81.6693 4.74219 81.8203 5.59375 81.8203 6.59375C81.8203 7.06771 81.7708 7.53125 81.6719 7.98438C81.5781 8.4375 81.4401 8.86458 81.2578 9.26562C81.0755 9.66667 80.8542 10.0339 80.5938 10.3672C80.3385 10.7005 80.0521 10.9896 79.7344 11.2344C79.4167 11.474 79.0703 11.6615 78.6953 11.7969C78.3203 11.9323 77.9271 12 77.5156 12C77.3333 12 77.2422 11.9401 77.2422 11.8203C77.2422 11.7266 77.2995 11.6536 77.4141 11.6016C77.8568 11.3984 78.25 11.1615 78.5938 10.8906C78.9375 10.6198 79.2266 10.2969 79.4609 9.92188C79.7005 9.54167 79.8802 9.09896 80 8.59375C80.125 8.08854 80.1875 7.5 80.1875 6.82812C80.1875 6.16146 80.1068 5.55469 79.9453 5.00781C79.7891 4.46094 79.5286 3.98958 79.1641 3.59375C78.7995 3.19792 78.3203 2.89062 77.7266 2.67188C77.1328 2.44792 76.401 2.32812 75.5312 2.3125ZM73.9609 11.6641V3.25C73.9609 3.0625 74.0234 2.9375 74.1484 2.875C74.2786 2.8125 74.4766 2.78125 74.7422 2.78125C75.0339 2.78125 75.237 2.8125 75.3516 2.875C75.4714 2.93229 75.5312 3.05729 75.5312 3.25V10.3984C75.5312 10.612 75.638 10.7188 75.8516 10.7188H77.1484C77.3724 10.7188 77.4844 10.7839 77.4844 10.9141C77.4844 10.9922 77.4036 11.0938 77.2422 11.2188C77.0859 11.3438 76.8906 11.4635 76.6562 11.5781C76.4219 11.6927 76.1562 11.7917 75.8594 11.875C75.5625 11.9583 75.2917 12 75.0469 12H74.2812C74.0677 12 73.9609 11.888 73.9609 11.6641ZM84.9375 1.03906H89.1484C89.3724 1.03906 89.4844 1.11979 89.4844 1.28125C89.4844 1.35417 89.4323 1.48698 89.3281 1.67969C89.224 1.86719 89.099 2.02604 88.9531 2.15625C88.8333 2.26562 88.6432 2.32031 88.3828 2.32031H83.8984C83.8203 2.32031 83.763 2.31771 83.7266 2.3125C83.6901 2.30208 83.6562 2.27865 83.625 2.24219C83.599 2.20573 83.5859 2.15365 83.5859 2.08594C83.5859 1.89323 83.737 1.67188 84.0391 1.42188C84.3464 1.16667 84.6458 1.03906 84.9375 1.03906ZM83.5938 11.6641V7.8125C83.5938 7.625 83.6562 7.5026 83.7812 7.44531C83.9115 7.38281 84.112 7.35156 84.3828 7.35156C84.6745 7.35156 84.8776 7.38281 84.9922 7.44531C85.1068 7.5026 85.1641 7.625 85.1641 7.8125V10.3984C85.1641 10.612 85.2708 10.7188 85.4844 10.7188H89.3047C89.5286 10.7188 89.6406 10.7995 89.6406 10.9609C89.6406 11.0339 89.5885 11.1693 89.4844 11.3672C89.3802 11.5599 89.2578 11.7188 89.1172 11.8438C88.9974 11.9479 88.8047 12 88.5391 12H83.8672C83.6849 12 83.5938 11.888 83.5938 11.6641ZM83.5938 6.5625V3.25781C83.5938 3.07031 83.6562 2.94531 83.7812 2.88281C83.9115 2.82031 84.112 2.78906 84.3828 2.78906C84.6745 2.78906 84.8776 2.82031 84.9922 2.88281C85.1068 2.9401 85.1641 3.0651 85.1641 3.25781V5.28125C85.1641 5.49479 85.2708 5.60156 85.4844 5.60156H88.6641C88.888 5.60156 89 5.68229 89 5.84375C89 5.91667 88.9479 6.04948 88.8438 6.24219C88.7396 6.42969 88.6172 6.58854 88.4766 6.71875C88.3568 6.82812 88.1641 6.88281 87.8984 6.88281H83.9141C83.7005 6.88281 83.5938 6.77604 83.5938 6.5625ZM92.4922 6.53125C92.5443 6.75 92.5703 7.02865 92.5703 7.36719V10.9609C92.5703 11.2109 92.5182 11.4036 92.4141 11.5391C92.2891 11.6849 92.1302 11.8125 91.9375 11.9219C91.7448 12.026 91.6094 12.0781 91.5312 12.0781C91.349 12.0781 91.2578 11.9661 91.2578 11.7422V4.34375C91.2578 4.28125 91.2734 4.23177 91.3047 4.19531C91.3359 4.15365 91.375 4.13281 91.4219 4.13281C91.5 4.13281 91.5781 4.21094 91.6562 4.36719C91.7396 4.52344 91.8854 4.85677 92.0938 5.36719C92.3125 5.91406 92.4453 6.30208 92.4922 6.53125ZM94.4141 10.0859L91.3047 2C91.263 1.90104 91.2422 1.80469 91.2422 1.71094C91.2422 1.58594 91.2917 1.46875 91.3906 1.35938C91.5104 1.21354 91.6693 1.09896 91.8672 1.01562C92.0651 0.927083 92.2188 0.882812 92.3281 0.882812C92.4427 0.882812 92.5312 0.908854 92.5938 0.960938C92.6615 1.01302 92.724 1.10938 92.7812 1.25L95.4219 8.35156C95.5156 8.60677 95.5625 8.8151 95.5625 8.97656C95.5625 9.10677 95.5312 9.26302 95.4688 9.44531C95.3438 9.76302 95.2214 10.013 95.1016 10.1953C94.9922 10.3672 94.875 10.4531 94.75 10.4531C94.6875 10.4531 94.6302 10.4271 94.5781 10.375C94.526 10.3229 94.4714 10.2266 94.4141 10.0859ZM98.5859 6.42969L96.9531 10.6719C96.7812 11.099 96.5104 11.4401 96.1406 11.6953C95.7812 11.9505 95.5026 12.0781 95.3047 12.0781C95.1484 12.0781 95.0703 12.0052 95.0703 11.8594C95.0703 11.7969 95.0964 11.7057 95.1484 11.5859L98.3438 3.11719C98.4375 2.92448 98.513 2.8151 98.5703 2.78906C98.6016 2.77344 98.6328 2.76562 98.6641 2.76562C98.7839 2.76562 98.8594 2.86719 98.8906 3.07031C98.9219 3.2526 98.9375 3.67448 98.9375 4.33594C98.9375 4.7474 98.9141 5.10938 98.8672 5.42188C98.8255 5.72917 98.7318 6.0651 98.5859 6.42969ZM100.977 1.21875V10.9141C100.977 11.1693 100.924 11.3594 100.82 11.4844C100.69 11.6406 100.503 11.7786 100.258 11.8984C100.018 12.0182 99.8229 12.0781 99.6719 12.0781C99.4948 12.0781 99.4062 11.9661 99.4062 11.7422V2.04688C99.4062 1.82812 99.4583 1.65365 99.5625 1.52344C99.6979 1.36198 99.8854 1.21615 100.125 1.08594C100.365 0.950521 100.557 0.882812 100.703 0.882812C100.885 0.882812 100.977 0.994792 100.977 1.21875ZM105.055 7.27344L102.445 2.07812C102.372 1.96354 102.336 1.85417 102.336 1.75C102.336 1.63542 102.378 1.52604 102.461 1.42188C102.549 1.31771 102.654 1.22656 102.773 1.14844C102.898 1.0651 103.026 1 103.156 0.953125C103.286 0.90625 103.398 0.882812 103.492 0.882812C103.695 0.882812 103.846 0.989583 103.945 1.20312L105.977 5.53906C106.102 5.80469 106.164 6.02344 106.164 6.19531C106.164 6.3151 106.138 6.45312 106.086 6.60938C106.034 6.76562 105.969 6.91406 105.891 7.05469C105.812 7.19531 105.727 7.3151 105.633 7.41406C105.544 7.51302 105.458 7.5625 105.375 7.5625C105.26 7.5625 105.154 7.46615 105.055 7.27344ZM110.312 1.48438L107.609 7.67969C107.536 7.85156 107.482 7.98698 107.445 8.08594C107.414 8.17969 107.383 8.3099 107.352 8.47656C107.32 8.64323 107.305 8.82292 107.305 9.01562L107.258 10.9141C107.247 11.1797 107.195 11.3698 107.102 11.4844C106.971 11.6406 106.786 11.7786 106.547 11.8984C106.307 12.0182 106.112 12.0781 105.961 12.0781C105.784 12.0781 105.695 11.974 105.695 11.7656L105.742 9.35938C105.753 8.90104 105.854 8.4375 106.047 7.96875L108.461 2.10938C108.581 1.82292 108.693 1.6224 108.797 1.50781C108.958 1.33073 109.182 1.18229 109.469 1.0625C109.76 0.942708 109.995 0.882812 110.172 0.882812C110.344 0.882812 110.43 0.955729 110.43 1.10156C110.43 1.17969 110.391 1.30729 110.312 1.48438Z" fill="white"/>
</svg>
