<svg width="68" height="56" viewBox="0 0 68 56" fill="none" xmlns="http://www.w3.org/2000/svg">
<g clip-path="url(#clip0_6_4)">
<path d="M64 43L58.9584 31.9449L49.0416 10.0501L44.4986 0.0717863L38.903 8.97329L35.9668 13.6394L27.1025 27.7095C25.6066 30.222 23.2798 31.8731 20.6205 31.8731C16.133 31.8731 12.4765 27.1352 12.4765 21.3205C12.4765 15.5058 16.0222 10.7679 20.5651 10.7679C25.108 10.7679 28.7091 15.5058 28.7091 21.3205C28.7091 21.8948 28.6537 22.3973 28.5983 22.9716L35.4127 12.2037C32.7535 5.02504 27.1025 0 20.5097 0C11.4238 0 4 9.54758 4 21.3923C4 33.1653 11.4238 43 20.5097 43C25.7729 43 30.482 39.6978 33.4737 34.601L43.3352 18.9516L49.2078 31.9449L49.3186 32.2321H36.1884C36.1884 32.2321 36.1884 32.3038 36.2438 32.3756C36.5762 33.6678 38.1828 42.3539 46.8255 43H55.6343H64Z" fill="white"/>
<path d="M3.144 53.056C2.62667 53.056 2.15467 52.936 1.728 52.696C1.30133 52.4507 0.962667 52.112 0.712 51.68C0.466667 51.2427 0.344 50.752 0.344 50.208C0.344 49.664 0.466667 49.176 0.712 48.744C0.962667 48.3067 1.30133 47.968 1.728 47.728C2.15467 47.4827 2.62667 47.36 3.144 47.36C3.66667 47.36 4.14133 47.4827 4.568 47.728C4.99467 47.968 5.33067 48.304 5.576 48.736C5.82133 49.168 5.944 49.6587 5.944 50.208C5.944 50.7573 5.82133 51.248 5.576 51.68C5.33067 52.112 4.99467 52.4507 4.568 52.696C4.14133 52.936 3.66667 53.056 3.144 53.056ZM3.144 52.424C3.53333 52.424 3.88267 52.3333 4.192 52.152C4.50667 51.9707 4.752 51.712 4.928 51.376C5.10933 51.04 5.2 50.6507 5.2 50.208C5.2 49.76 5.10933 49.3707 4.928 49.04C4.752 48.704 4.50933 48.4453 4.2 48.264C3.89067 48.0827 3.53867 47.992 3.144 47.992C2.74933 47.992 2.39733 48.0827 2.088 48.264C1.77867 48.4453 1.53333 48.704 1.352 49.04C1.176 49.3707 1.088 49.76 1.088 50.208C1.088 50.6507 1.176 51.04 1.352 51.376C1.53333 51.712 1.77867 51.9707 2.088 52.152C2.40267 52.3333 2.75467 52.424 3.144 52.424ZM6.63306 50.208C6.63306 49.664 6.75573 49.176 7.00106 48.744C7.2464 48.3067 7.57973 47.9653 8.00106 47.72C8.42773 47.4747 8.89973 47.352 9.41706 47.352C10.0251 47.352 10.5557 47.4987 11.0091 47.792C11.4624 48.0853 11.7931 48.5013 12.0011 49.04H11.1291C10.9744 48.704 10.7504 48.4453 10.4571 48.264C10.1691 48.0827 9.8224 47.992 9.41706 47.992C9.02773 47.992 8.6784 48.0827 8.36906 48.264C8.05973 48.4453 7.81706 48.704 7.64106 49.04C7.46506 49.3707 7.37706 49.76 7.37706 50.208C7.37706 50.6507 7.46506 51.04 7.64106 51.376C7.81706 51.7067 8.05973 51.9627 8.36906 52.144C8.6784 52.3253 9.02773 52.416 9.41706 52.416C9.8224 52.416 10.1691 52.328 10.4571 52.152C10.7504 51.9707 10.9744 51.712 11.1291 51.376H12.0011C11.7931 51.9093 11.4624 52.3227 11.0091 52.616C10.5557 52.904 10.0251 53.048 9.41706 53.048C8.89973 53.048 8.42773 52.928 8.00106 52.688C7.57973 52.4427 7.2464 52.104 7.00106 51.672C6.75573 51.24 6.63306 50.752 6.63306 50.208ZM13.8128 48.016V49.88H15.8448V50.48H13.8128V52.4H16.0848V53H13.0848V47.416H16.0848V48.016H13.8128ZM20.4823 51.76H18.0503L17.6023 53H16.8343L18.8503 47.456H19.6903L21.6983 53H20.9303L20.4823 51.76ZM20.2743 51.168L19.2663 48.352L18.2583 51.168H20.2743ZM26.9609 53H26.2329L23.3049 48.56V53H22.5769V47.416H23.3049L26.2329 51.848V47.416H26.9609V53ZM33.6308 51.76H31.1988L30.7508 53H29.9827L31.9988 47.456H32.8388L34.8468 53H34.0788L33.6308 51.76ZM33.4228 51.168L32.4148 48.352L31.4068 51.168H33.4228ZM35.4534 50.208C35.4534 49.664 35.576 49.176 35.8214 48.744C36.0667 48.3067 36.4 47.9653 36.8214 47.72C37.248 47.4747 37.72 47.352 38.2374 47.352C38.8454 47.352 39.376 47.4987 39.8294 47.792C40.2827 48.0853 40.6134 48.5013 40.8214 49.04H39.9494C39.7947 48.704 39.5707 48.4453 39.2774 48.264C38.9894 48.0827 38.6427 47.992 38.2374 47.992C37.848 47.992 37.4987 48.0827 37.1894 48.264C36.88 48.4453 36.6374 48.704 36.4614 49.04C36.2854 49.3707 36.1974 49.76 36.1974 50.208C36.1974 50.6507 36.2854 51.04 36.4614 51.376C36.6374 51.7067 36.88 51.9627 37.1894 52.144C37.4987 52.3253 37.848 52.416 38.2374 52.416C38.6427 52.416 38.9894 52.328 39.2774 52.152C39.5707 51.9707 39.7947 51.712 39.9494 51.376H40.8214C40.6134 51.9093 40.2827 52.3227 39.8294 52.616C39.376 52.904 38.8454 53.048 38.2374 53.048C37.72 53.048 37.248 52.928 36.8214 52.688C36.4 52.4427 36.0667 52.104 35.8214 51.672C35.576 51.24 35.4534 50.752 35.4534 50.208ZM45.2011 51.76H42.7691L42.3211 53H41.5531L43.5691 47.456H44.4091L46.4171 53H45.6491L45.2011 51.76ZM44.9931 51.168L43.9851 48.352L42.9771 51.168H44.9931ZM49.0317 47.424C49.6397 47.424 50.165 47.5387 50.6077 47.768C51.0557 47.992 51.397 48.3147 51.6317 48.736C51.8717 49.1573 51.9917 49.6533 51.9917 50.224C51.9917 50.7947 51.8717 51.2907 51.6317 51.712C51.397 52.128 51.0557 52.448 50.6077 52.672C50.165 52.8907 49.6397 53 49.0317 53H47.2957V47.424H49.0317ZM49.0317 52.4C49.7517 52.4 50.301 52.2107 50.6797 51.832C51.0584 51.448 51.2477 50.912 51.2477 50.224C51.2477 49.5307 51.0557 48.9893 50.6717 48.6C50.293 48.2107 49.7464 48.016 49.0317 48.016H48.0237V52.4H49.0317ZM53.6799 48.016V49.88H55.7119V50.48H53.6799V52.4H55.9519V53H52.9519V47.416H55.9519V48.016H53.6799ZM62.7095 47.464V53H61.9815V48.872L60.1415 53H59.6295L57.7815 48.864V53H57.0535V47.464H57.8375L59.8855 52.04L61.9335 47.464H62.7095ZM67.8481 47.424L66.0321 50.896V53H65.3041V50.896L63.4801 47.424H64.2881L65.6641 50.248L67.0401 47.424H67.8481Z" fill="white"/>
</g>
<defs>
<clipPath id="clip0_6_4">
<rect width="68" height="56" fill="white"/>
</clipPath>
</defs>
</svg>
