<svg width="127" height="88" viewBox="0 0 127 88" fill="none" xmlns="http://www.w3.org/2000/svg">
<path d="M127 88L116.329 65.3756L95.3379 20.5676L85.7221 0.146912L73.8781 18.3639L67.663 27.9132L48.9003 56.7078C45.7341 61.8497 40.8089 65.2287 35.1801 65.2287C25.6814 65.2287 17.9418 55.5326 17.9418 43.6327C17.9418 31.7329 25.4469 22.0367 35.0628 22.0367C44.6787 22.0367 52.301 31.7329 52.301 43.6327C52.301 44.808 52.1837 45.8364 52.0665 47.0117L66.4903 24.975C60.8615 10.2838 48.9003 0 34.9455 0C15.7138 0 0 19.5392 0 43.7796C0 67.8731 15.7138 88 34.9455 88C46.0859 88 56.0536 81.2421 62.386 70.8114L83.2595 38.7846L95.6897 65.3756L95.9243 65.9633H68.132C68.132 65.9633 68.132 66.1102 68.2493 66.2571C68.9529 68.9015 72.3536 86.6778 90.6473 88H109.293H127Z" fill="#ffff" fill-opacity="1"/>
</svg>
