<svg width="500" height="400" viewBox="0 0 500 400" fill="none" xmlns="http://www.w3.org/2000/svg">
<g clip-path="url(#clip0_203_377)">
<rect width="500" height="400" fill="white"/>
<path fill-rule="evenodd" clip-rule="evenodd" d="M343.802 66.0196L344.353 65.3506L344.36 65.3642L344.372 65.3506L344.594 65.7916L457.641 272.946L490.788 327.563H357.716C336.361 327.563 315.962 318.754 301.378 303.234L274.089 274.193H381.242L374.35 263.059L346.781 218.521L330.095 191.566L240.257 293.901L240.494 294.137C220.191 314.337 193.932 327.554 165.547 331.86C137.163 336.165 108.138 331.335 82.707 318.073C57.2762 304.811 36.7699 283.811 24.1796 258.138C11.5894 232.464 7.57394 203.459 12.7191 175.355C17.8644 147.251 31.901 121.517 52.7812 101.909C73.6615 82.3009 100.293 69.8435 128.791 66.3545C157.288 62.8654 186.161 68.5271 211.196 82.5137C236.232 96.5004 256.394 115.077 268.234 141.101L215.524 199.371L211.196 185.25L204.636 172.623C198.905 160.028 189.28 149.584 177.163 142.815C165.046 136.045 151.073 133.305 137.28 134.994C123.488 136.682 110.599 142.712 100.494 152.202C90.388 161.692 83.5948 174.146 81.1048 187.747C78.6144 201.35 80.5578 215.387 86.6512 227.813C92.7445 240.238 102.669 250.402 114.977 256.82C127.285 263.238 141.333 265.576 155.07 263.492C168.75 261.417 181.41 255.065 191.219 245.357L343.802 66.0196Z" fill="#0A88D2"/>
</g>
<defs>
<clipPath id="clip0_203_377">
<rect width="500" height="400" fill="white"/>
</clipPath>
</defs>
</svg>
