<?xml version="1.0" standalone="no"?>
<!DOCTYPE svg PUBLIC "-//W3C//DTD SVG 20010904//EN"
 "http://www.w3.org/TR/2001/REC-SVG-20010904/DTD/svg10.dtd">
<svg version="1.0" xmlns="http://www.w3.org/2000/svg"
 width="400.000000pt" height="400.000000pt" viewBox="0 0 400.000000 400.000000"
 preserveAspectRatio="xMidYMid meet">
<metadata>
Created by potrace 1.14, written by Peter Selinger 2001-2017
</metadata>
<g transform="translate(0.000000,400.000000) scale(0.100000,-0.100000)"
fill="#000000" stroke="none">
<path d="M940 3385 c-202 -42 -371 -135 -525 -290 -174 -175 -325 -463 -375
-715 -5 -30 -13 -66 -15 -80 -14 -66 -20 -148 -20 -285 0 -135 10 -288 19
-304 2 -3 7 -22 10 -41 13 -78 18 -99 52 -199 119 -356 337 -631 612 -771 59
-30 157 -67 197 -76 11 -2 43 -8 70 -13 85 -17 268 -6 368 23 48 13 95 30 103
36 7 7 14 9 14 5 0 -8 95 45 175 99 62 41 197 171 250 240 27 35 286 432 395
606 23 36 67 106 100 155 32 50 100 156 152 237 51 81 96 147 99 148 4 0 14
-17 22 -37 8 -21 38 -85 65 -143 27 -58 60 -127 72 -155 13 -27 43 -93 67
-145 25 -52 53 -113 63 -135 10 -22 35 -76 55 -120 21 -44 41 -90 46 -102 l8
-23 -431 0 c-237 0 -433 -2 -435 -4 -10 -9 42 -167 83 -255 110 -235 272 -371
509 -424 60 -14 158 -16 662 -17 l593 0 -13 27 c-6 16 -29 63 -49 106 -21 43
-38 79 -38 82 0 2 -34 74 -75 160 -41 87 -75 158 -75 160 0 1 -24 54 -54 116
-29 63 -65 139 -79 169 -14 30 -57 125 -97 210 -40 85 -83 180 -97 210 -14 30
-41 89 -60 130 -20 41 -48 102 -63 135 -15 33 -47 101 -70 150 -50 107 -80
172 -148 320 -27 61 -77 168 -111 239 -34 70 -61 130 -61 131 0 2 -31 68 -68
147 -37 78 -83 178 -102 220 -19 43 -37 77 -40 78 -5 0 -60 -83 -69 -105 -2
-5 -8 -14 -13 -20 -6 -5 -119 -181 -253 -390 -134 -209 -247 -385 -252 -391
-4 -5 -12 -18 -18 -27 -5 -10 -41 -66 -80 -125 -38 -59 -98 -152 -134 -207
-112 -176 -210 -327 -318 -493 -40 -62 -98 -137 -128 -166 -265 -256 -646
-150 -805 224 -92 218 -85 471 20 685 100 205 252 314 446 321 204 6 391 -132
487 -362 46 -110 61 -189 61 -326 l-1 -98 57 88 c31 48 82 125 112 172 30 47
105 163 166 257 62 95 112 178 112 185 0 7 -21 56 -46 108 -167 349 -446 591
-758 659 -95 21 -261 24 -346 6z"/>
</g>
</svg>
