<svg width="115" height="80" viewBox="0 0 115 80" fill="none" xmlns="http://www.w3.org/2000/svg">
<path d="M115 80L105.337 59.4324L86.3296 18.6978L77.6223 0.133556L66.8975 16.6945L61.2696 25.3756L44.2798 51.5526C41.4127 56.227 36.9529 59.2988 31.856 59.2988C23.2548 59.2988 16.2465 50.4841 16.2465 39.6661C16.2465 28.8481 23.0425 20.0334 31.7498 20.0334C40.4571 20.0334 47.3592 28.8481 47.3592 39.6661C47.3592 40.7346 47.253 41.6694 47.1468 42.7379L60.2078 22.7045C55.1108 9.34891 44.2798 0 31.6436 0C14.229 0 0 17.7629 0 39.7997C0 61.7028 14.229 80 31.6436 80C41.7313 80 50.7572 73.8564 56.4912 64.374L75.3924 35.2588L86.6482 59.4324L86.8606 59.9666H61.6944C61.6944 59.9666 61.6944 60.1002 61.8006 60.2337C62.4377 62.6377 65.5171 78.798 82.0822 80H98.9658H115Z" fill="#0A73BE" fill-opacity="0.8"/>
</svg>
