<svg width="100" height="100" viewBox="0 0 100 100" fill="none" xmlns="http://www.w3.org/2000/svg">
<g clip-path="url(#clip0_203_377)">
<rect width="100" height="100" fill="white"/>
<g clip-path="url(#clip1_203_377)">
<path fill-rule="evenodd" clip-rule="evenodd" d="M68.143 23.584L68.2494 23.4546L68.2509 23.4572L68.2531 23.4546L68.296 23.5399L90.1613 63.61L96.5723 74.1745H70.834C66.7037 74.1745 62.7582 72.4705 59.9374 69.4685L54.6594 63.8512H75.3845L74.0514 61.6974L68.7191 53.0825L65.4918 47.8685L48.1157 67.6633L48.1615 67.709C44.2346 71.6161 39.1557 74.1727 33.6657 75.0056C28.1757 75.8384 22.5618 74.9041 17.6431 72.3389C12.7244 69.7736 8.75811 65.7116 6.32296 60.7455C3.88781 55.7794 3.11116 50.169 4.10632 44.7328C5.10149 39.2966 7.81639 34.319 11.855 30.5261C15.8935 26.7333 21.0445 24.3237 26.5564 23.6488C32.0682 22.9739 37.6526 24.069 42.4949 26.7745C47.3373 29.4799 51.2368 33.0731 53.527 38.1071L43.3319 49.3782L42.4949 46.6469L41.226 44.2044C40.1176 41.7681 38.2559 39.7479 35.9124 38.4385C33.5688 37.1291 30.8661 36.5991 28.1984 36.9257C25.5308 37.2524 23.0378 38.4186 21.0833 40.2542C19.1287 42.0899 17.8148 44.4989 17.3332 47.1299C16.8515 49.761 17.2274 52.4762 18.4059 54.8797C19.5845 57.2832 21.5041 59.2491 23.8847 60.4907C26.2652 61.7321 28.9822 62.1844 31.6392 61.7813C34.2851 61.3798 36.7338 60.1512 38.6311 58.2734L68.143 23.584Z" fill="#0A88D2"/>
</g>
</g>
<defs>
<clipPath id="clip0_203_377">
<rect width="100" height="100" fill="white"/>
</clipPath>
<clipPath id="clip1_203_377">
<rect width="94" height="53" fill="white" transform="translate(3 23)"/>
</clipPath>
</defs>
</svg>
